<svg width="27" height="27" viewBox="0 0 27 27" fill="none" xmlns="http://www.w3.org/2000/svg">
<path d="M25.3367 6.55804V20.8811C25.3367 23.6934 23.0569 25.9731 20.2447 25.9731H5.9216C3.10936 25.9731 0.829628 23.6934 0.829628 20.8811V6.55804C0.829628 3.7458 3.10936 1.46606 5.9216 1.46606H20.2447C23.0569 1.46606 25.3367 3.7458 25.3367 6.55804ZM10.4872 20.6633C16.5318 22.7489 22.1125 17.1683 20.0269 11.1236C19.3242 9.08637 17.7165 7.47855 15.6792 6.77582C9.63445 4.69024 4.05381 10.2709 6.13939 16.3157C6.84211 18.3529 8.44979 19.9606 10.4872 20.6633ZM4.57943 6.30914C4.67561 6.81277 5.09233 7.10579 5.52342 7.10579C5.78578 7.10579 6.05323 6.9975 6.25801 6.76251C6.2761 6.74172 6.293 6.71943 6.30796 6.69625C6.51932 6.37316 6.5259 5.98934 6.34626 5.67806C6.21911 5.45773 6.01389 5.30038 5.76813 5.23456C5.52267 5.16845 5.266 5.2024 5.04597 5.32969C4.73454 5.50919 4.54846 5.84499 4.5697 6.23001C4.5712 6.25634 4.57434 6.28311 4.57943 6.30914Z" fill="#D0D0D0"/>
<path d="M13.0832 7.76587C16.3661 7.76587 19.0367 10.4365 19.0367 13.7194C19.0367 17.0024 16.3661 19.673 13.0832 19.673C9.8002 19.673 7.12962 17.0024 7.12962 13.7194C7.12962 10.4365 9.8002 7.76587 13.0832 7.76587Z" fill="#D0D0D0"/>
</svg>
