<svg width="27" height="26" viewBox="0 0 27 26" fill="none" xmlns="http://www.w3.org/2000/svg">
<g clip-path="url(#clip0_672_77)">
<path d="M26.1408 16.0749V25.4373H20.7131V16.7019C20.7131 14.5075 19.928 13.0099 17.9634 13.0099C16.4636 13.0099 15.5711 14.0192 15.1784 14.9955C15.0352 15.3445 14.9984 15.8303 14.9984 16.3188V25.4373H9.56882C9.56882 25.4373 9.64195 10.6424 9.56882 9.10955H14.9979V11.4239C14.9869 11.4412 14.9725 11.4599 14.9622 11.4767H14.9979V11.4239C15.7192 10.313 17.0073 8.72597 19.8906 8.72597C23.4629 8.72591 26.1408 11.0596 26.1408 16.0749ZM3.88927 1.23877C2.03182 1.23877 0.816895 2.45711 0.816895 4.05927C0.816895 5.62651 1.99667 6.88182 3.8172 6.88182H3.85347C5.74689 6.88182 6.92443 5.62675 6.92443 4.05927C6.88875 2.45711 5.74689 1.23877 3.88927 1.23877ZM1.13936 25.4373H6.56687V9.10955H1.13936V25.4373Z" fill="#D0D0D0"/>
</g>
<defs>
<clipPath id="clip0_672_77">
<rect width="25.3239" height="25.3239" fill="white" transform="translate(0.816895 0.676025)"/>
</clipPath>
</defs>
</svg>
