<svg width="27" height="27" viewBox="0 0 27 27" fill="none" xmlns="http://www.w3.org/2000/svg">
<g clip-path="url(#clip0_672_86)">
<path d="M26.1408 5.61306C25.1687 6.03948 24.1329 6.32213 23.053 6.45937C24.1639 5.79604 25.0119 4.75368 25.4105 3.49728C24.3747 4.11486 23.231 4.55108 22.0122 4.79452C21.0287 3.74725 19.6269 3.09863 18.0976 3.09863C15.1306 3.09863 12.742 5.50686 12.742 8.45914C12.742 8.88393 12.778 9.29238 12.8662 9.68122C8.41082 9.46393 4.46845 7.32855 1.82006 4.07565C1.35769 4.87784 1.08648 5.79604 1.08648 6.78449C1.08648 8.64049 2.04225 10.2857 3.46693 11.2382C2.60592 11.2219 1.76124 10.9719 1.04563 10.5782C1.04563 10.5945 1.04563 10.6158 1.04563 10.637C1.04563 13.2413 2.90327 15.4044 5.33927 15.9027C4.90304 16.022 4.42761 16.0792 3.9342 16.0792C3.5911 16.0792 3.24473 16.0596 2.91961 15.9877C3.61397 18.11 5.58434 19.6703 7.92721 19.7209C6.10389 21.1473 3.78879 22.0066 1.28254 22.0066C0.843042 22.0066 0.421521 21.987 0 21.9331C2.37392 23.464 5.18732 24.3381 8.2213 24.3381C18.0829 24.3381 23.4745 16.1691 23.4745 9.08815C23.4745 8.85125 23.4663 8.62252 23.4549 8.39542C24.5185 7.6406 25.4122 6.6979 26.1408 5.61306Z" fill="#D0D0D0"/>
</g>
<defs>
<clipPath id="clip0_672_86">
<rect width="26.1408" height="26.1408" fill="white" transform="translate(0 0.647949)"/>
</clipPath>
</defs>
</svg>
